<svg width="25" height="25" viewBox="0 0 25 25" fill="none" xmlns="http://www.w3.org/2000/svg">
<path d="M17.1875 3.125C17.1875 2.7106 17.3521 2.31317 17.6451 2.02015C17.9382 1.72712 18.3356 1.5625 18.75 1.5625H21.875C22.2894 1.5625 22.6868 1.72712 22.9799 2.02015C23.2729 2.31317 23.4375 2.7106 23.4375 3.125V21.875H24.2188C24.426 21.875 24.6247 21.9573 24.7712 22.1038C24.9177 22.2503 25 22.449 25 22.6562C25 22.8635 24.9177 23.0622 24.7712 23.2087C24.6247 23.3552 24.426 23.4375 24.2188 23.4375H0.78125C0.57405 23.4375 0.375336 23.3552 0.228823 23.2087C0.08231 23.0622 0 22.8635 0 22.6562C0 22.449 0.08231 22.2503 0.228823 22.1038C0.375336 21.9573 0.57405 21.875 0.78125 21.875H1.5625V17.1875C1.5625 16.7731 1.72712 16.3757 2.02015 16.0826C2.31317 15.7896 2.7106 15.625 3.125 15.625H6.25C6.6644 15.625 7.06183 15.7896 7.35485 16.0826C7.64788 16.3757 7.8125 16.7731 7.8125 17.1875V21.875H9.375V10.9375C9.375 10.5231 9.53962 10.1257 9.83265 9.83265C10.1257 9.53962 10.5231 9.375 10.9375 9.375H14.0625C14.4769 9.375 14.8743 9.53962 15.1674 9.83265C15.4604 10.1257 15.625 10.5231 15.625 10.9375V21.875H17.1875V3.125ZM18.75 21.875H21.875V3.125H18.75V21.875ZM14.0625 21.875V10.9375H10.9375V21.875H14.0625ZM6.25 21.875V17.1875H3.125V21.875H6.25Z" fill="#A5AAB5"/>
</svg>
