<svg width="25" height="25" viewBox="0 0 25 25" fill="none" xmlns="http://www.w3.org/2000/svg">
<path d="M0 3.125C0 2.7106 0.16462 2.31317 0.457646 2.02015C0.750671 1.72712 1.1481 1.5625 1.5625 1.5625H23.4375C23.8519 1.5625 24.2493 1.72712 24.5424 2.02015C24.8354 2.31317 25 2.7106 25 3.125V6.25C25 6.6644 24.8354 7.06183 24.5424 7.35485C24.2493 7.64788 23.8519 7.8125 23.4375 7.8125V19.5312C23.4375 20.5673 23.0259 21.5608 22.2934 22.2934C21.5608 23.0259 20.5673 23.4375 19.5312 23.4375H5.46875C4.43275 23.4375 3.43918 23.0259 2.70661 22.2934C1.97405 21.5608 1.5625 20.5673 1.5625 19.5312V7.8125C1.1481 7.8125 0.750671 7.64788 0.457646 7.35485C0.16462 7.06183 0 6.6644 0 6.25V3.125ZM3.125 7.8125V19.5312C3.125 20.1529 3.37193 20.749 3.81147 21.1885C4.25101 21.6281 4.84715 21.875 5.46875 21.875H19.5312C20.1529 21.875 20.749 21.6281 21.1885 21.1885C21.6281 20.749 21.875 20.1529 21.875 19.5312V7.8125H3.125ZM23.4375 3.125H1.5625V6.25H23.4375V3.125ZM7.8125 11.7188C7.8125 11.5115 7.89481 11.3128 8.04132 11.1663C8.18784 11.0198 8.38655 10.9375 8.59375 10.9375H16.4062C16.6135 10.9375 16.8122 11.0198 16.9587 11.1663C17.1052 11.3128 17.1875 11.5115 17.1875 11.7188C17.1875 11.926 17.1052 12.1247 16.9587 12.2712C16.8122 12.4177 16.6135 12.5 16.4062 12.5H8.59375C8.38655 12.5 8.18784 12.4177 8.04132 12.2712C7.89481 12.1247 7.8125 11.926 7.8125 11.7188Z" fill="#A5AAB5"/>
</svg>
